<svg width="1024" height="1024" viewBox="0 0 1024 1024" xmlns="http://www.w3.org/2000/svg">
  <rect width="1024" height="1024" fill="#c8e89a"/>
  <g transform="translate(304.3444976076555 202) scale(2.9665071770334928)" fill="#2d7d32">
    <path d="M65.5885 3.01814C67.3259 -1.00605 73.032 -1.00604 74.7694 3.01815L139.526 153.009C141.134 156.734 137.869 160.723 133.899 159.882L74.3232 147.263C71.5907 146.685 68.7672 146.685 66.0347 147.263L6.45875 159.882C2.48902 160.723 -0.776153 156.734 0.832247 153.009L65.5885 3.01814Z"/>
    <path d="M0 198.339C0 186.595 7.16489 176.039 18.0795 171.703C29.8724 167.019 43.0447 167.218 54.69 172.259L66.057 177.179C68.5744 178.269 71.4289 178.276 73.9521 177.2L85.9455 172.085C97.5049 167.156 110.55 167.024 122.206 171.719C132.958 176.049 140 186.477 140 198.068V208.886H0V198.339Z"/>
    <path d="M70 174.386C78.2843 174.386 85 168.79 85 161.886C85 154.982 78.2843 149.386 70 149.386C61.7157 149.386 55 154.982 55 161.886C55 168.79 61.7157 174.386 70 174.386Z"/>
  </g>
</svg>