<svg xmlns="http://www.w3.org/2000/svg" viewBox="0 0 1440 900" preserveAspectRatio="xMidYMax slice">
  <defs>
    <linearGradient id="sky" x1="0" y1="0" x2="0" y2="1">
      <stop offset="0%" stop-color="#d4eda8"/>
      <stop offset="100%" stop-color="#b0d878"/>
    </linearGradient>
  </defs>
  <!-- Sky -->
  <rect width="1440" height="900" fill="url(#sky)"/>
  <!-- Far mountains layer 1 -->
  <path d="M0,580 Q180,420 360,520 Q540,360 720,480 Q900,380 1080,500 Q1260,400 1440,460 L1440,900 L0,900Z" fill="#8ab848" opacity="0.55"/>
  <!-- Mountains layer 2 -->
  <path d="M0,640 Q200,500 400,580 Q600,440 800,560 Q1000,480 1200,550 Q1320,510 1440,540 L1440,900 L0,900Z" fill="#5f9028"/>
  <!-- Mountains layer 3 -->
  <path d="M0,700 Q160,620 320,670 Q480,570 640,660 Q800,600 960,650 Q1120,615 1280,645 Q1360,630 1440,650 L1440,900 L0,900Z" fill="#3d7018"/>
  <!-- Mist layer -->
  <rect x="0" y="655" width="1440" height="60" fill="rgba(210,240,170,0.25)"/>
  <!-- Background trees (tall, thin) -->
  <path d="M-30,900 L-5,740 L20,900Z M45,900 L80,710 L115,900Z M120,900 L155,730 L190,900Z M195,900 L232,720 L268,900Z M268,900 L306,735 L344,900Z M345,900 L385,718 L425,900Z M422,900 L462,730 L502,900Z M500,900 L542,716 L582,900Z M578,900 L619,730 L660,900Z M656,900 L700,715 L742,900Z M735,900 L778,728 L820,900Z M815,900 L858,715 L900,900Z M893,900 L937,730 L980,900Z M970,900 L1014,716 L1058,900Z M1048,900 L1092,728 L1136,900Z M1126,900 L1170,714 L1213,900Z M1205,900 L1248,730 L1290,900Z M1283,900 L1328,715 L1372,900Z M1363,900 L1402,730 L1440,900Z" fill="#214e10"/>
  <!-- Foreground trees (larger) -->
  <path d="M-20,900 L15,760 L50,900Z M60,900 L100,748 L140,900Z M148,900 L185,762 L222,900Z M225,900 L265,750 L305,900Z M305,900 L345,764 L385,900Z M385,900 L425,752 L464,900Z M464,900 L506,766 L548,900Z M548,900 L588,750 L628,900Z M628,900 L670,764 L712,900Z M712,900 L754,748 L796,900Z M796,900 L838,762 L880,900Z M880,900 L922,750 L962,900Z M962,900 L1006,766 L1050,900Z M1050,900 L1090,750 L1130,900Z M1130,900 L1173,764 L1215,900Z M1215,900 L1257,750 L1298,900Z M1298,900 L1342,763 L1386,900Z M1386,900 L1420,752 L1456,900Z" fill="#152f0a"/>
</svg>
