<svg xmlns="http://www.w3.org/2000/svg" viewBox="0 0 1440 900" preserveAspectRatio="xMidYMax slice">
  <defs>
    <linearGradient id="sky" x1="0" y1="0" x2="0" y2="1">
      <stop offset="0%" stop-color="#0d47a1"/>
      <stop offset="35%" stop-color="#1565c0"/>
      <stop offset="65%" stop-color="#42a5f5"/>
      <stop offset="88%" stop-color="#90caf9"/>
      <stop offset="100%" stop-color="#e1f5fe"/>
    </linearGradient>
  </defs>
  <!-- Sky -->
  <rect width="1440" height="900" fill="url(#sky)"/>
  <!-- Cloud cluster 1 -->
  <ellipse cx="210" cy="175" rx="130" ry="52" fill="white" opacity="0.82"/>
  <ellipse cx="270" cy="162" rx="85" ry="42" fill="white" opacity="0.82"/>
  <ellipse cx="155" cy="188" rx="75" ry="38" fill="white" opacity="0.72"/>
  <ellipse cx="310" cy="178" rx="60" ry="30" fill="white" opacity="0.72"/>
  <!-- Cloud cluster 2 -->
  <ellipse cx="820" cy="145" rx="150" ry="58" fill="white" opacity="0.78"/>
  <ellipse cx="890" cy="132" rx="95" ry="45" fill="white" opacity="0.78"/>
  <ellipse cx="755" cy="158" rx="85" ry="40" fill="white" opacity="0.68"/>
  <ellipse cx="940" cy="148" rx="65" ry="32" fill="white" opacity="0.68"/>
  <!-- Cloud cluster 3 -->
  <ellipse cx="1230" cy="195" rx="115" ry="50" fill="white" opacity="0.72"/>
  <ellipse cx="1295" cy="182" rx="78" ry="38" fill="white" opacity="0.72"/>
  <ellipse cx="1175" cy="205" rx="70" ry="34" fill="white" opacity="0.62"/>
  <!-- Distant mountains -->
  <path d="M0,680 Q240,540 480,640 Q720,500 960,620 Q1200,540 1440,600 L1440,900 L0,900Z" fill="#1a5fa8" opacity="0.5"/>
  <!-- Mid mountains -->
  <path d="M0,740 Q180,640 360,700 Q540,600 720,680 Q900,620 1080,680 Q1260,640 1440,670 L1440,900 L0,900Z" fill="#0d47a1" opacity="0.65"/>
  <!-- Sandy/icy base -->
  <path d="M0,830 Q360,800 720,818 Q1080,835 1440,808 L1440,900 L0,900Z" fill="#ddeeff" opacity="0.55"/>
  <rect x="0" y="860" width="1440" height="40" fill="#c5dcf0" opacity="0.4"/>
</svg>
